<svg width="502" height="250" viewBox="0 0 502 250" fill="none" xmlns="http://www.w3.org/2000/svg">
<path d="M124.5 151.5L371 23.9999C383.833 17.1666 411.9 3.89989 421.5 5.49989C433.5 7.49989 478 -9.50013 496.5 10.4999C526.562 43 419 85.1666 371 112.5L343.5 126L245.5 230.5L210 249.5C203.833 248.167 192.5 244 196.5 238C200.5 232 219.833 198.5 229 182.5L62.5 238C54.1666 239.5 40 237.2 50 216C56.689 212.459 62.8619 206.337 66.0821 207.138L7.49997 135C1.33331 129.833 -6.80003 117.5 9.99997 109.5C31 99.4999 24.5 101.5 43.5 109.5C58.7 115.9 103.833 140.167 124.5 151.5Z" fill="#333333"/>
</svg>
